<svg width="23" height="21" viewBox="0 0 23 21" fill="none" xmlns="http://www.w3.org/2000/svg">
<path d="M12.5459 1.5L12.5459 -6.55671e-08L9.5459 6.55671e-08L9.5459 1.5L11.0459 1.5L12.5459 1.5ZM9.98524 20.5607C10.571 21.1464 11.5208 21.1464 12.1066 20.5607L21.6525 11.0147C22.2383 10.4289 22.2383 9.47918 21.6525 8.8934C21.0667 8.30761 20.117 8.30761 19.5312 8.8934L11.0459 17.3787L2.56062 8.8934C1.97483 8.30761 1.02508 8.30761 0.439297 8.8934C-0.14649 9.47919 -0.14649 10.4289 0.439297 11.0147L9.98524 20.5607ZM11.0459 1.5L9.5459 1.5L9.5459 19.5L11.0459 19.5L12.5459 19.5L12.5459 1.5L11.0459 1.5Z" fill="#F2F2F2"/>
</svg>
